<svg width="50" height="40" fill="none" xmlns="http://www.w3.org/2000/svg"><path d="M3.3 17.95c-.4 2.08-.4 4.16 0 6.24l4.18-3.17-4.17-3.07zM27.85 5.59a17.96 17.96 0 00-15.58.4l7.64 5.53 7.94-5.93zm9.68 11.47l-4.9 3.66 5 3.66c.5-2.37.5-4.94-.1-7.32zm-25.16 19a17.84 17.84 0 0016 .1l-8.26-6.04-7.74 5.94zm-1.32-17.81L4.73 13.7c-.3.7-.61 1.38-.81 2.08l5.4 3.95 1.73-1.48zm10.89 10.58l8.46 6.14c.3-.2.61-.4.81-.6.3-.2.61-.49.92-.79l-8.45-6.13-1.74 1.38zm-7.33-13.25l-7.54-5.44c-.5.5-.91 1.09-1.32 1.68l7.03 5.14 1.83-1.38zM25.5 26.16l8.26 6.04c.5-.5.92-1.09 1.32-1.68l-7.84-5.74-1.73 1.38zM18.18 12.9l-7.85-5.73c-.2.1-.4.3-.6.4-.42.3-.82.59-1.13.98l7.84 5.64 1.74-1.28zm10.89 10.5l7.13 5.14c.3-.7.62-1.29.92-1.98L30.91 22l-1.84 1.38zm.82-16.73L3.92 26.37c.2.68.5 1.38.81 2.07l27-20.48a8.84 8.84 0 00-1.84-1.29zm4.38 3.86a9.4 9.4 0 00-.92-1.09L5.85 30.22c.2.5.51.89.82 1.19.1.2.3.4.4.5l27.7-20.78c-.2-.2-.3-.4-.5-.6zm1.63 2.37L8.7 33.49c.51.5 1.12 1 1.74 1.39L36.92 14.9c-.3-.7-.61-1.39-1.02-1.98z" fill="#63D1BB"/></svg>