<svg width="114" height="46" fill="none" xmlns="http://www.w3.org/2000/svg"><path d="M110.89 41.8c4.42.9.8-35.81.1-38.2-2.01-6.6-26.84-2.1-32.37-1.7-12.77 1-25.34-1-37.8-.4-6.24.3-35.09-1.8-37.7 2C-1.91 10.67.4 29.23 1.8 38.51c-4.02.8 2.31 4.19 3.12 4.89 6.33 2.19 16.48-.2 23.12.4 15.48 1.5 31.97-2.2 47.55-1 4.53 1.1 9.65 1 14.28 1.2 3.52 5.58 19.8-2.4 21-2.2-.1 0 .51.1 0 0z" fill="#000"/><path d="M26.24 24.35c-.1-2.5-.5-5.1-.5-7.59 0-2.1.4-4.19-.3-6.18 0-.2.1-.4.1-.7.2-1-3.12-.5-3.62.4-.3.3-.5.6-.4.9 0 .1.1.2.1.2-.6 2.99-1.51 5.98-2.52 8.88-.4 1.1-.8 2.2-1.2 3.39-.6-1-1.11-2.1-1.61-3.2-1.31-3.29-2.52-6.58-4.13-9.67.2-1.5-3.01-1.3-3.71 0-.8 1.6-.7 3.19-.4 4.89.3 1.9.3 3.79.4 5.78 0 3.8.3 7.49.4 11.28-.3.4-.4.8-.1 1.3.2.2.3.4.5.5.9.7 3.32.1 3.32-1.2 0-3.9-.3-7.79-.4-11.68v-1.1c.1.1.1.3.2.4.6 1.5 1.2 3 2.1 4.4.81 1.4 1.21 2.89 1.72 4.39-.2.2-.3.4-.2.7 0 .2.1.3.2.3.6.5 1.7.3 2.4 0 .31-.1.51-.2.81-.4.3-.2.8-.6.7-1.1 0-.1-.1-.2-.1-.3.4-1.2.71-2.5.91-3.7a25 25 0 011.2-3.89c0 .6.1 1.2.1 1.8.2 2.4 0 4.79 0 7.18 0 .8.1 1.5.2 2.3.11.3.31 1.7.31 1.8-.6.5-.4 1.2.4 1.4.9.2 2.01-.1 2.62-.7 1.1-1 .6-2.7.3-4-.3-2 .3-4.49.2-6.78zM34.18 25.05c-.1-1.9-.7-3.7-.7-5.6 0-2.19.2-4.38-.1-6.48-.1-.7-3.82.1-3.72 1 .3 2 .2 4 .2 5.99 0 1.9.4 3.69.7 5.58.3 2-.1 3.9.1 5.9.1.89.7 2.59.1 3.38-.4.5 1.41.3 1.51.3.7-.1 1.71-.4 2.21-1 .6-.8.2-2.29.1-3.19-.5-1.9-.3-3.99-.4-5.88zM49.76 21.85c-2-2.6-5.63-.7-8.14-1.5-1.3-.4-1.3-2.19-1.3-3.19 0-1.4-.1-2.6-.3-3.89-.1-1 0-2 .7-2.8.1-.1.8-.3.8-.3.3-.1.6-.1 1-.1 1.51-.1 4.43.2 3.83 2.4-.3 1 3.41.4 3.72-.6 1.2-4.39-6.94-3.49-9.25-2.89-2.11.6-4.43 1.8-4.53 4.2-.1 1.19.3 2.29.3 3.38.1 1.3-.2 2.6.3 3.9 1.01 2.79 5.23 1.5 7.45 1.7 3.61.3 2.6 5.18 2.6 7.48.01 1.2 1.12 3.29.21 4.29-.6.6-1.91.7-2.61.7-.8.1-2.11.3-2.62-.4-.9-1.3.1-3.6-.1-5.1-.1-.9-3.92-.1-3.72 1 .3 2.5-1.3 5.8 2.31 6.3 2.32.3 4.93-.2 7.14-.9 1.1-.4 2.21-.9 3.12-1.7 1-.9.7-2.2.4-3.4-.8-2.99.5-6.18-1.3-8.58zM66.35 21.65c-.1-3.59-.7-7.08-.7-10.67 0-1.9-3.82-1.2-3.82.3 0 3.39.5 6.78.6 10.17v.2c-1.8 0-3.72.2-5.63.2.2-4.39-.6-8.78-.4-13.07 0-.6-3.72-.1-3.72 1-.2 4.19.6 8.48.4 12.67-.1 2-.2 4-.2 6.09 0 1 .2 2.1.3 3.1.1.89.5 2.19.2 3.09-.2.7 3.42.3 3.72-.7.5-1.7-.2-3.8-.4-5.5-.2-1.59 0-3.28.1-4.98 1.91-.1 3.92-.3 5.83 0l.3 3.9c.1 1.09.2 2.19.2 3.28 0 1 .1 2.4-.2 3.3-.7 2 3.02 1.8 3.52.3.7-1.8.5-4 .4-5.8-.1-2.19-.5-4.58-.5-6.88zM82.44 25.94c-.9-2.59-2.31-4.89-3.42-7.38 1-1.9 1.91-3.7 2.81-5.59.8-1.7 1.41-3.59 2.92-4.79.5-.4.5-.8-.2-.9-.8-.1-2.01.2-2.61.7a9.52 9.52 0 00-3.02 4.1c-.9 1.89-1.81 3.89-2.82 5.78-.1.1-.1.3-.2.4-.5.3-.7.7-.6 1.2-.8 1.5-1.5 3-2.41 4.39-.3-5.29-.9-10.48-1.1-15.77 0-1.2-3.83-.5-3.73 1 .2 6.49 1.2 12.97 1.2 19.46-.3.3-.2.5.1.6 0 1.7-.1 3.29-.2 4.99-.4.7.41 1.1 1.01 1.1h.1c.7 0 2.52-.3 2.62-1.3.2-2 .2-4 .2-5.99a28.4 28.4 0 003.82-5.29c.7 1.4 1.4 2.8 1.9 4.3.81 2.59 2.22 4.98 3.02 7.58.5 1.7 4.23.7 3.72-1-.9-2.6-2.2-5-3.11-7.59zM104.86 21.55c-.2-.8-1.31-.8-2.22-.7v-1c-.1-2.49-.2-5.08-.4-7.58-.2-2.3-1.5-3.19-3.82-3.09-2.31.1-5.02.5-7.14 1.3a6.5 6.5 0 00-4.32 5.39c-.5 2.89.2 5.88.4 8.78.1 3.29.1 6.68.1 9.98 0 .5 3.72 0 3.72-1v-7.89c0-.8 0-1.5-.1-2.29 1.31-.6 3.52 0 4.83.1 1.1.1 2.11-.2 3.12-.3 0 2.2.1 4.39.2 6.59 0 1.1.5 3.39-.3 4.29-.4.5 1.4.3 1.5.3.8-.1 1.71-.4 2.21-1 .91-1.1.4-3.6.4-4.9-.1-1.79-.1-3.58-.1-5.38.91-.1 2.12-.8 1.92-1.6zm-13.88-.2l-.3-3.59c-.2-2.2.1-5.29 2.21-6.58.6-.4 1.61-.3 2.22-.4.9-.2 1.9-.4 2.71.2 1.1.8.9 3.49.9 4.59 0 1.9.2 3.79.3 5.68-.5.1-1.1.1-1.6.1-2.21-.1-4.43-.4-6.44 0zM30.96 10.38c.5 0 1.01-.2 1.41-.5.1-.1.2-.1.2-.2.5-.3.9-.8.7-1.3-.5-1-.4-2.1-.4-3.2 0-.89-.9-1.19-1.7-1.09-.7.1-2.12.6-2.12 1.4 0 .9-.1 1.9.1 2.8 0 .1-.1.2-.1.3-.1.2 0 .4.1.6v.39c.1.2.2.4.4.5.51.3 1.01.3 1.41.3z" fill="#fff"/></svg>