<svg width="50" height="40" fill="none" xmlns="http://www.w3.org/2000/svg"><path d="M24.5 39C33.58 39 41 31.65 41 22.66A16.4 16.4 0 0024.5 39zM12.74 17.65c0 2.55 2.07 4.5 4.54 4.5.93 0 1.86-.31 2.58-.82v.3c0 2.56 2.06 4.5 4.54 4.5a4.49 4.49 0 004.53-4.5v-.3c.73.5 1.65.82 2.58.82a4.49 4.49 0 004.54-4.5 4.43 4.43 0 00-2.58-4.09 4.43 4.43 0 002.58-4.08 4.54 4.54 0 00-7.12-3.68v-.3c0-2.56-2.06-4.5-4.53-4.5a4.49 4.49 0 00-4.54 4.5v.3a4.54 4.54 0 00-2.58-.82 4.49 4.49 0 00-4.54 4.5 4.43 4.43 0 002.58 4.08 4.61 4.61 0 00-2.58 4.1zM24.5 8.97a4.49 4.49 0 110 8.99 4.49 4.49 0 110-9zM8 22.66C8 31.65 15.43 39 24.5 39A16.4 16.4 0 008 22.66z" fill="#63D1BB"/></svg>