<svg width="547" height="514" viewBox="0 0 547 514" fill="none" xmlns="http://www.w3.org/2000/svg">
<rect width="547" height="514" fill="#ECECEC"/>
<g clip-path="url(#clip0_101_8)">
<path d="M343.16 252.1C341.65 253.2 340.04 253.98 338.43 254.87C338.43 253.19 338.33 251.41 337.83 249.83C337.93 249.53 337.93 249.14 337.93 248.85C338.33 245.89 338.63 241.84 335.91 239.77C335.61 239.47 334.71 239.77 334 240.07C333.8 239.87 333.7 239.77 333.5 239.67C333.4 239.47 333.3 239.17 333.3 238.97C333.3 238.87 333.1 238.77 332.9 238.77C333.2 238.38 333.2 237.99 332.49 237.69C332.09 237.49 331.69 237.39 331.39 237.29C331.29 237.2 331.29 237.2 331.19 237.2C330.28 236.9 329.27 236.7 328.26 236.5C328.36 236.21 328.66 235.72 328.86 235.52C328.96 235.32 329.16 235.22 329.26 235.12L329.46 234.92C329.46 234.92 329.57 234.92 329.57 234.83L329.67 234.73C330.07 234.43 330.47 233.84 329.87 233.55C329.27 233.25 328.37 233.45 327.86 233.75C326.96 234.44 326.25 235.13 325.74 236.11C323.74 235.91 321.72 235.91 319.6 236.01C319.7 235.91 319.7 235.81 319.7 235.71C319.9 235.13 318.8 235.23 318.5 235.23L313.77 235.82C315.17 232.07 316.89 227.32 314.77 223.68C313.57 221.6 310.85 221.1 308.63 221C306.22 220.9 303.7 221.5 301.58 222.58C296.75 225.15 294.44 230.18 293.33 235.51C292.83 234.82 291.02 235.11 290.71 236.01C290.61 236.31 290.51 236.6 290.41 236.99C290.21 237.19 290.11 237.39 290.11 237.59V237.79H289.91C289.91 237.69 289.91 237.59 290.01 237.49C290.11 237.39 290.21 237.29 290.31 237.09C290.91 234.82 291.51 232.55 292.22 230.38C292.52 229.58 289.71 229.98 289.41 230.78C289.01 231.96 288.6 233.14 288.3 234.33C288.1 234.43 287.9 234.53 287.9 234.63V234.73C287.8 234.63 287.6 234.53 287.4 234.53V233.53C287.4 233.14 284.57 233.53 284.57 234.33V235.91C284.37 236.01 284.27 236.11 284.07 236.21L283.87 236.4C283.77 236.5 283.77 236.6 283.77 236.6V236.7L283.67 236.8C283.57 236.9 283.47 237.1 283.67 237.29C283.87 237.49 284.17 237.49 284.37 237.49H284.47V237.98H283.77L283.37 237.88C283.37 237.48 282.67 237.38 281.96 237.58V237.48C281.86 236.89 281.76 236.3 281.76 235.71C281.96 235.61 282.26 235.51 282.46 235.41C282.66 235.31 282.76 235.21 282.76 235.01V234.82C282.76 234.62 282.36 234.62 282.26 234.62H281.66C281.56 233.34 281.56 232.06 281.56 230.77C281.56 229.98 278.73 230.47 278.73 231.57C278.73 233.34 278.73 235.12 278.93 236.79H278.63V235.31C278.63 234.33 277.33 234.13 276.52 234.52C276.82 234.22 277.02 233.93 276.92 233.54C276.52 232.16 276.12 230.77 275.92 229.29C275.72 227.91 272.9 228.6 273.1 230.09C273.3 231.56 273.7 232.94 274.1 234.33C274.3 235.12 275.41 235.22 276.22 234.83C276.02 235.02 275.82 235.31 275.82 235.61V236.21C275.52 235.91 275.32 235.91 274.91 235.91C273.81 235.91 273.2 236.79 273.5 237.39C273.3 237.39 273.2 237.29 273 237.29C272.565 236.086 272.328 234.82 272.3 233.54C272.3 232.64 270.98 232.55 270.18 232.84V232.64C269.78 231.86 269.58 230.97 269.38 230.18C269.08 228.9 266.15 229.58 266.55 230.98C266.75 231.56 266.85 232.25 267.05 232.85H266.95C266.65 232.95 266.35 233.05 266.05 233.25C265.25 233.34 264.24 233.83 264.24 234.43C264.34 234.92 264.34 235.41 264.44 235.81C264.04 235.91 263.44 235.91 262.93 236.01C262.63 235.21 262.43 234.43 262.33 233.64C262.23 232.74 260.72 232.74 260.01 233.34C259.231 231.299 258.182 229.372 256.89 227.61C254.17 224.26 249.64 223.07 245.52 223.96C243.617 224.281 241.858 225.178 240.48 226.53C239.28 227.91 239.08 229.59 239.28 231.27C239.48 232.75 239.88 235.22 240.88 237.19C240.48 237.19 240.18 237.19 239.98 237.29C239.68 237.39 239.38 237.49 239.18 237.69C237.26 237.69 235.25 237.69 233.34 237.59C229.11 237.39 224.98 236.69 220.75 236.89C219.85 236.89 219.25 237.59 219.25 238.18C218.24 238.67 217.53 239.46 217.13 240.45C215.42 239.36 213.61 238.18 211.79 237.29C211.09 236.89 208.47 237.98 209.48 238.47C211.29 239.37 213.1 240.55 214.81 241.63C215.31 241.93 216.12 241.73 216.62 241.53C216.62 241.53 216.72 241.53 216.82 241.43C216.533 242.908 216.602 244.433 217.02 245.88C217.02 245.98 217.12 246.08 217.22 246.18V247.36C216.82 247.56 216.52 247.86 216.42 248.15C216.22 249.53 216.12 250.91 216.12 252.29C215.82 252.49 215.62 252.79 215.62 253.09C215.42 256.34 215.62 259.69 216.12 262.95C216.32 265.62 216.82 268.19 217.33 270.85C217.43 271.25 217.43 271.65 217.53 272.13C217.213 273.255 217.144 274.436 217.33 275.59C216.43 275.79 215.62 276.48 216.13 277.17C216.789 278.212 217.678 279.087 218.73 279.73C218.13 279.63 217.33 279.83 216.83 280.33C216.03 281.12 215.12 281.81 214.31 282.6C213.91 283 214.01 283.49 214.61 283.68C215.31 283.88 216.12 283.58 216.63 283.19C217.43 282.4 218.33 281.71 219.14 280.92C219.34 280.72 219.44 280.42 219.34 280.22C222.56 281.91 226.59 281.52 230.52 281.12C229.62 282.7 229.01 284.37 228.3 286.05C228 286.75 230.82 286.45 231.12 285.65C231.72 283.98 232.32 282.4 233.23 280.82C236.96 280.92 240.78 280.92 244.51 280.92C244.61 281.12 244.91 281.22 245.21 281.22C248.54 281.52 251.76 281.12 254.98 280.52C259.81 280.32 264.64 280.03 269.48 279.73C277.02 279.53 284.68 279.43 292.22 279.43L292.52 279.73C292.82 280.03 293.13 280.03 293.53 280.03H293.73C294.43 280.03 295.14 280.13 295.85 280.13C296.05 280.13 296.15 280.23 296.45 280.13C297.25 280.23 298.06 280.23 298.77 280.33C298.97 280.53 299.27 280.63 299.57 280.73C303.4 281.02 307.22 281.22 311.05 281.41C311.15 281.61 311.55 281.71 311.85 281.71C319 281.81 327.25 284.47 333.6 280.03C334.1 279.63 333.9 279.14 333.3 279.04H333C334.223 276.303 335.197 273.462 335.91 270.55C336.31 270.35 336.51 270.06 336.51 269.67C336.51 268.48 336.71 267.3 336.91 266.11C337.12 265.22 337.22 264.34 337.32 263.45C337.72 261.28 338.12 259.1 338.32 257.03C340.641 255.975 342.866 254.721 344.97 253.28C346.58 252.1 344.17 251.4 343.16 252.1V252.1ZM287.39 237.3L287.29 237.4C287.39 237.1 287.39 236.8 287.49 236.5H287.59C287.59 236.7 287.49 237 287.39 237.3Z" fill="#C9C9C9"/>
<path d="M262.73 233.55C262.83 233.75 263.33 233.75 263.53 233.75C263.93 233.75 264.34 233.65 264.64 233.55C265.04 233.35 265.74 232.95 265.44 232.46C265.04 231.86 264.84 231.28 264.44 230.68C264.34 230.48 263.84 230.48 263.64 230.48C263.24 230.48 262.83 230.58 262.53 230.68C262.13 230.88 261.42 231.28 261.73 231.77C262.03 232.37 262.33 233.05 262.73 233.55V233.55ZM219.85 231.87C220.05 232.47 220.95 232.47 221.45 232.37C221.96 232.27 222.87 231.77 222.66 231.07C222.46 230.49 222.26 229.8 221.76 229.3C221.26 228.8 220.45 228.9 219.85 229.1C219.45 229.3 218.64 229.9 219.15 230.39C219.55 230.99 219.65 231.28 219.85 231.87V231.87ZM229.91 234.83C230.71 234.83 233.03 233.55 231.12 233.55C230.22 233.55 228 234.83 229.92 234.83H229.91ZM322.42 233.25C322.72 233.35 323.12 233.25 323.53 233.15C323.83 233.05 324.23 232.95 324.43 232.65C324.83 232.26 325.14 231.97 325.44 231.47C325.54 231.27 325.64 231.07 325.44 230.88C325.24 230.68 324.94 230.68 324.64 230.58C324.24 230.58 323.84 230.68 323.53 230.78C323.23 230.88 322.93 231.08 322.73 231.38C322.63 231.58 322.53 231.77 322.33 231.87L322.13 232.07C321.92 232.27 321.82 232.47 321.82 232.66C321.92 233.06 322.12 233.16 322.42 233.26V233.25ZM335.81 238.58C336.41 238.48 337.22 238.38 337.72 237.89C339.03 236.8 340.34 235.72 341.35 234.34C341.65 233.94 340.35 234.14 340.24 234.14C339.74 234.24 338.94 234.44 338.53 234.84C337.63 236.11 336.31 237.1 335.11 238.19C334.61 238.59 335.51 238.59 335.81 238.59V238.58ZM346.68 265.33H341.75C341.15 265.33 340.24 265.83 340.14 266.42C340.04 267.11 340.94 267.31 341.44 267.31H346.38C346.98 267.31 347.89 266.81 347.99 266.22C348.09 265.53 347.29 265.33 346.69 265.33H346.68ZM256.39 281.13C255.89 281.23 254.98 281.43 254.78 281.92C254.28 283.2 253.77 284.48 253.37 285.77C253.17 286.46 255.98 286.07 256.19 285.27C256.59 283.99 256.99 282.71 257.59 281.42C257.79 280.92 256.59 281.12 256.39 281.12V281.13ZM261.02 283.7C260.72 283.7 260.32 283.8 260.02 283.9C259.71 283.99 259.31 284.09 259 284.29C258.9 284.39 258.7 284.49 258.7 284.69V284.98C258.7 285.08 258.6 285.18 258.6 285.28C258.5 285.38 258.5 285.47 258.6 285.57C258.8 285.67 259.1 285.67 259.3 285.67C259.7 285.67 260.01 285.57 260.41 285.37C260.61 285.27 261.01 285.17 261.21 284.97C261.32 284.77 261.42 284.68 261.52 284.48V284C261.52 283.7 261.12 283.7 261.02 283.7ZM316.48 287.35C316.08 286.65 313.46 287.65 313.67 288.14C314.47 289.71 315.57 291.2 316.58 292.77C316.98 293.47 319.6 292.38 319.4 291.99C318.4 290.41 317.29 288.93 316.48 287.35V287.35ZM320.51 284.98C320.21 284.38 319.41 284.38 318.9 284.58C318.5 284.68 317.39 285.18 317.7 285.77C318.1 286.56 318.5 287.35 318.9 288.04C319.2 288.63 320 288.63 320.51 288.44C320.91 288.34 322.02 287.84 321.71 287.24C321.31 286.56 320.91 285.77 320.51 284.98ZM204.75 263.65C203.24 264.05 201.73 264.25 200.22 264.65C199.72 264.74 198.91 265.23 199.01 265.92C199.21 266.62 200.11 266.62 200.72 266.52C202.23 266.12 203.74 265.92 205.25 265.53C205.75 265.43 206.55 264.83 206.45 264.25C206.15 263.55 205.25 263.55 204.75 263.65Z" fill="#C9C9C9"/>
<path d="M243.1 260.7C243 258.03 242.6 255.36 242.6 252.7C242.6 250.52 243 248.25 242.2 246.18C242.2 245.98 242.3 245.68 242.3 245.49C242.5 244.4 238.97 244.99 238.47 245.99C238.17 246.28 237.97 246.58 238.07 246.97C238.07 247.07 238.17 247.17 238.17 247.27C237.45 250.438 236.576 253.568 235.55 256.65C235.15 257.83 234.65 259.01 234.25 260.2C233.64 259.11 233.03 258.03 232.53 256.84C231.13 253.39 229.91 249.94 228.2 246.67C228.4 245.19 224.98 245.29 224.28 246.67C223.47 248.35 223.58 250.03 223.88 251.91C224.18 253.98 224.28 255.95 224.28 258.03C224.28 261.98 224.68 265.93 224.68 269.87C224.28 270.27 224.18 270.77 224.58 271.25L225.18 271.85C226.08 272.54 228.7 271.95 228.7 270.56C228.7 266.42 228.4 262.37 228.3 258.22V257.04C228.4 257.14 228.4 257.34 228.5 257.44C229.1 259.01 229.81 260.59 230.72 262.07C231.62 263.55 232.02 265.13 232.53 266.71C232.33 266.91 232.23 267.21 232.33 267.41C232.33 267.61 232.43 267.71 232.63 267.8C233.23 268.4 234.54 268.1 235.15 267.8C235.45 267.7 235.75 267.5 235.95 267.4C236.25 267.2 236.85 266.71 236.65 266.22C236.65 266.12 236.55 266.02 236.55 265.92C237.06 264.64 237.26 263.36 237.56 261.98C237.86 260.59 238.36 259.21 238.87 257.83C238.97 258.43 238.97 259.11 239.07 259.71C239.27 262.27 239.07 264.74 239.07 267.31C239.07 268.19 239.17 268.89 239.27 269.77C239.37 270.07 239.67 271.55 239.57 271.65C238.97 272.25 239.17 272.93 239.97 273.03C240.88 273.23 242.09 272.93 242.8 272.34C244 271.25 243.4 269.48 243.2 268.1C242.6 265.73 243.1 263.06 243.1 260.7V260.7ZM251.56 261.38C251.46 259.41 250.75 257.53 250.75 255.56C250.75 253.29 250.95 251.02 250.55 248.75C250.45 248.05 246.42 248.85 246.52 249.83C246.82 251.91 246.72 254.08 246.72 256.15C246.72 258.23 247.22 260 247.42 262.08C247.73 264.15 247.32 266.22 247.52 268.29C247.63 269.29 248.33 271.06 247.63 271.85C247.23 272.35 249.14 272.15 249.24 272.15C250.04 272.05 251.05 271.75 251.56 271.15C252.26 270.37 251.76 268.79 251.66 267.8C251.46 265.53 251.66 263.46 251.56 261.38ZM268.16 258.03C266.06 255.26 262.23 257.23 259.51 256.45C258.1 256.05 258.1 254.18 258.1 253.09C258.1 251.71 258 250.33 257.8 248.95C257.7 247.86 257.8 246.87 258.6 246.08C258.7 245.98 259.5 245.78 259.4 245.78C259.81 245.68 260.11 245.68 260.51 245.68C262.13 245.59 265.25 245.88 264.64 248.16C264.34 249.14 268.27 248.56 268.57 247.56C269.77 243.02 261.12 243.91 258.7 244.5C256.49 245.1 253.97 246.38 253.87 248.85C253.77 250.03 254.17 251.22 254.17 252.4C254.27 253.78 253.97 255.16 254.47 256.55C255.58 259.51 260.11 258.13 262.33 258.32C266.25 258.62 265.04 263.75 265.14 266.22C265.14 267.5 266.35 269.68 265.34 270.66C264.74 271.36 263.34 271.36 262.53 271.46C261.73 271.56 260.31 271.75 259.71 270.96C258.71 269.58 259.81 267.21 259.61 265.53C259.41 264.54 255.38 265.43 255.58 266.52C255.88 269.18 254.18 272.64 258 273.13C260.51 273.43 263.23 272.93 265.65 272.24C266.85 271.84 267.96 271.26 268.97 270.47C269.97 269.57 269.67 268.1 269.37 266.91C268.67 263.95 270.07 260.59 268.17 258.03H268.16ZM285.78 257.83C285.68 254.08 285.08 250.33 285.08 246.58C285.08 244.6 281.05 245.29 281.05 246.88C281.05 250.43 281.55 253.98 281.75 257.63V257.83C279.75 257.83 277.83 258.03 275.82 258.03C276.02 253.39 275.22 248.85 275.42 244.21C275.42 243.61 271.49 244.11 271.39 245.29C271.19 249.74 271.99 254.18 271.89 258.62L271.59 265.04C271.59 266.12 271.79 267.21 271.89 268.29C271.99 269.29 272.39 270.66 272.09 271.55C271.89 272.35 275.71 271.85 276.02 270.86C276.52 269.08 275.82 266.81 275.62 265.04C275.42 263.36 275.62 261.58 275.72 259.8C277.72 259.7 279.84 259.5 281.86 259.8L282.16 263.95C282.26 265.13 282.36 266.22 282.36 267.41C282.36 268.39 282.46 269.87 282.16 270.86C281.36 272.93 285.38 272.74 285.98 271.26C286.68 269.38 286.48 267.11 286.38 265.13C286.18 262.77 285.78 260.3 285.78 257.83V257.83ZM302.9 262.37C301.99 259.61 300.48 257.24 299.27 254.57C300.27 252.6 301.28 250.72 302.29 248.75C303.09 246.97 303.8 244.9 305.41 243.71C306.01 243.22 306.01 242.83 305.11 242.73C304.21 242.63 303 242.93 302.29 243.42C300.891 244.553 299.786 246.008 299.07 247.66C298.07 249.74 297.16 251.71 296.05 253.68C295.95 253.78 295.85 253.98 295.85 254.08C295.35 254.38 295.05 254.87 295.25 255.36C294.44 256.94 293.63 258.42 292.73 260C292.43 254.47 291.72 248.95 291.52 243.42C291.52 242.13 287.49 242.92 287.49 244.5C287.69 251.32 288.7 258.13 288.8 265.04V265.14C288.5 265.44 288.6 265.63 288.9 265.73C288.9 267.5 288.8 269.18 288.7 270.96C288.2 271.75 289.2 272.05 289.8 272.05H289.9C290.61 272.05 292.53 271.65 292.63 270.66C292.83 268.59 292.93 266.52 292.83 264.44C294.4 262.719 295.782 260.835 296.95 258.82C297.76 260.3 298.46 261.78 298.97 263.36C299.87 266.12 301.28 268.59 302.19 271.36C302.69 273.13 306.72 272.05 306.22 270.26C305.31 267.6 303.9 265.04 302.89 262.37H302.9ZM326.85 257.73C326.65 256.94 325.45 256.84 324.54 256.94V255.95C324.44 253.29 324.34 250.62 324.14 247.95C323.94 245.49 322.52 244.6 320.11 244.7C317.69 244.8 314.77 245.2 312.46 246.08C311.249 246.508 310.178 247.259 309.362 248.251C308.546 249.243 308.017 250.439 307.83 251.71C307.23 254.67 308.03 257.93 308.23 260.89C308.43 264.35 308.33 267.89 308.33 271.35C308.33 271.95 312.36 271.35 312.36 270.27V261.97C312.36 261.19 312.26 260.4 312.26 259.51C313.66 258.91 315.98 259.51 317.39 259.61C318.49 259.71 319.61 259.41 320.71 259.31C320.71 261.58 320.81 263.95 320.91 266.22C320.91 267.41 321.41 269.77 320.51 270.76C320.11 271.26 322.02 271.06 322.12 271.06C322.92 270.96 323.93 270.66 324.44 269.97C325.44 268.89 324.94 266.22 324.84 264.84C324.74 262.96 324.74 260.99 324.74 259.11C325.74 259.31 327.05 258.52 326.85 257.73V257.73ZM311.95 257.53L311.65 253.78C311.45 251.41 311.75 248.26 313.97 246.78C314.57 246.38 315.67 246.48 316.38 246.38C317.39 246.18 318.4 245.98 319.3 246.58C320.51 247.37 320.2 250.23 320.2 251.41C320.2 253.39 320.41 255.36 320.51 257.44C319.91 257.54 319.41 257.54 318.8 257.54C316.48 257.44 314.17 257.14 311.95 257.54V257.53ZM248.13 245.98C248.63 245.88 249.24 245.78 249.64 245.49C249.74 245.39 249.84 245.39 249.94 245.29C250.44 244.99 250.95 244.5 250.64 243.91C250.14 242.83 250.24 241.64 250.24 240.56C250.24 239.56 249.24 239.27 248.44 239.37C247.73 239.47 246.22 239.97 246.22 240.85C246.22 241.84 246.12 242.83 246.32 243.81C246.32 243.91 246.22 244.01 246.22 244.21C246.12 244.41 246.22 244.61 246.32 244.8V245.2C246.42 245.4 246.52 245.59 246.72 245.69C247.12 245.99 247.63 245.99 248.13 245.99V245.98Z" fill="white"/>
</g>
<defs>
<clipPath id="clip0_101_8">
<rect width="149" height="72" fill="white" transform="translate(199 221)"/>
</clipPath>
</defs>
</svg>
