<svg width="86" height="35" fill="none" xmlns="http://www.w3.org/2000/svg"><path d="M4.55 26.38c0-3.5-.3-6.92-.4-10.42v-1c0 .1.1.2.1.4.5 1.4 1.1 2.7 1.8 3.9.7 1.2 1.1 2.6 1.5 3.91-.2.2-.3.4-.2.6 0 .2.1.2.2.3.5.5 1.5.2 2.1 0 .2-.1.5-.2.7-.4.3-.2.7-.6.6-1 0-.1 0-.2-.1-.2.4-1.1.6-2.2.8-3.3.2-1.21.7-2.31 1.1-3.52 0 .5.1 1 .1 1.6.2 2.11 0 4.32 0 6.42 0 .7 0 1.4.2 2.1.1.3.3 1.51.2 1.61-.5.5-.4 1.1.3 1.2.8.2 1.8-.1 2.3-.6 1-.9.5-2.4.3-3.6-.4-2 .1-4.21 0-6.22-.1-2.3-.4-4.51-.4-6.81 0-1.8.3-3.71-.3-5.52 0-.2.1-.4.1-.6.2-.9-2.8-.4-3.2.4-.3.2-.4.5-.3.8 0 .1.1.1.1.2a71.3 71.3 0 01-3.3 10.93c-.5-.9-1-1.9-1.4-2.8-1.2-2.91-2.2-5.82-3.6-8.63.2-1.3-2.7-1.2-3.3 0-.7 1.4-.6 2.91-.4 4.41.3 1.7.3 3.41.3 5.12 0 3.3.3 6.71.4 10.02-.3.3-.4.7-.1 1.2.1.2.3.3.5.5 1.2.7 3.3.2 3.3-1zM22.75 7.94c-.1-.6-3.4.1-3.3.9.3 1.8.2 3.6.1 5.41 0 1.7.4 3.3.6 5.01.2 1.7-.1 3.51.1 5.22.1.8.6 2.3.1 3-.4.4 1.2.3 1.3.3.6-.1 1.5-.3 1.9-.9.6-.7.2-2 0-2.8-.3-1.7-.1-3.51-.2-5.32-.1-1.7-.6-3.3-.7-4.9.3-2.01.4-3.92.1-5.92zM25.96 14.65c.9 2.5 4.6 1.3 6.6 1.5 3.2.2 2.3 4.62 2.3 6.62 0 1.1 1 2.9.2 3.81-.5.6-1.7.6-2.4.6-.7.1-1.9.3-2.3-.4-.8-1.2.1-3.2-.1-4.61-.1-.8-3.4-.1-3.3.9.3 2.2-1.2 5.21 2 5.62 2.1.2 4.4-.1 6.3-.8 1-.3 1.9-.8 2.7-1.51.9-.8.6-2 .4-3-.6-2.51.6-5.32-1-7.52-1.7-2.31-5-.7-7.2-1.3-1.2-.2-1.2-1.81-1.2-2.81 0-1.2-.1-2.3-.2-3.51-.1-.9 0-1.8.6-2.4.1-.1.7-.3.7-.3.3-.1.6-.1.9-.1 1.3-.1 3.9.2 3.4 2.1-.2.9 3 .4 3.3-.5 1-3.91-6.1-3.11-8.2-2.61-1.9.5-3.9 1.6-4 3.7-.1 1.01.2 2.01.3 3.01 0 1.2-.3 2.41.2 3.51zM40.36 16.56c-.1 1.8-.2 3.6-.2 5.41 0 .9.1 1.8.3 2.8.1.8.4 2.01.2 2.81-.2.6 3 .2 3.3-.6.5-1.5-.2-3.4-.3-4.91-.1-1.5 0-2.9.1-4.41 1.7-.1 3.4-.2 5.1 0l.3 3.5c.1 1.01.2 1.91.2 2.91 0 .9.1 2.11-.2 2.91-.7 1.7 2.7 1.6 3.1.3.6-1.6.4-3.5.3-5.21-.3-2.2-.6-4.21-.6-6.31-.1-3.21-.6-6.32-.6-9.53 0-1.7-3.3-1.1-3.3.3 0 3.01.4 6.02.6 9.13v.2c-1.6 0-3.3.1-4.9.2.2-3.91-.5-7.82-.4-11.73 0-.5-3.3-.1-3.3.9-.2 3.81.4 7.52.3 11.33zM54.47 21.87c-.3.3-.2.4 0 .5 0 1.5 0 2.9-.2 4.41-.4.6.4 1 .9 1h.1c.6 0 2.2-.3 2.3-1.1.2-1.8.2-3.5.2-5.31 1.3-1.4 2.4-3.1 3.4-4.71.6 1.2 1.2 2.5 1.7 3.9.7 2.31 1.9 4.42 2.6 6.82.5 1.5 3.8.6 3.3-.9-.7-2.3-1.9-4.51-2.6-6.82-.8-2.3-2-4.4-3-6.61.8-1.6 1.7-3.3 2.5-5.01.7-1.5 1.2-3.21 2.6-4.31.5-.4.5-.8-.2-.8-.7-.1-1.7.2-2.3.6-1.3 1-2 2.2-2.7 3.6-.8 1.7-1.6 3.41-2.5 5.12-.1.1-.1.2-.2.4-.4.3-.7.6-.5 1.1-.7 1.3-1.3 2.6-2.1 3.91-.3-4.71-.8-9.32-1-14.03 0-1.1-3.3-.4-3.3.9.2 5.71 1 11.53 1 17.34zM85.98 15.65c-.2-.7-1.2-.7-1.9-.6v-.8c-.1-2.2-.1-4.5-.3-6.81-.2-2.1-1.3-2.81-3.3-2.71-2 .1-4.4.4-6.3 1.2-2.2.9-3.4 2.5-3.8 4.81-.5 2.5.2 5.22.3 7.82.1 3 .1 5.92.1 8.92 0 .5 3.3 0 3.3-.9v-7.02c0-.7 0-1.4-.1-2.1 1.2-.5 3.1 0 4.3.1.9.1 1.8-.1 2.7-.2 0 1.9.1 3.9.2 5.91 0 1 .4 3.01-.3 3.81-.4.4 1.2.3 1.3.3.7-.1 1.5-.3 1.9-.9.8-.9.4-3.2.3-4.31-.1-1.6-.1-3.2-.1-4.81.8-.4 1.9-1 1.7-1.7zm-6.6-.2c-1.9 0-3.8-.3-5.7 0l-.3-3.2c-.1-2 .1-4.71 1.9-5.92.5-.3 1.4-.3 2-.4.8-.1 1.6-.3 2.4.2 1 .7.8 3.11.8 4.11 0 1.7.2 3.41.3 5.11-.5.1-1 .1-1.4.1zM19.15 4.13c0 .2 0 .4.1.5v.4c.1.2.2.3.4.4.3.2.7.2 1.1.2.4 0 .9-.2 1.2-.4l.2-.2c.4-.3.8-.7.6-1.1-.4-.9-.4-1.9-.3-2.9 0-.81-.8-1.11-1.5-1.01-.6.1-1.8.5-1.8 1.3s-.1 1.7.1 2.5c-.1.1-.1.2-.1.3zM80.67 33.4c-1.6-.6-3.3-.6-4.9-.8l-4.9-.6c-1.6.1-3.3 0-5 .1l-4.9.3c-6.5.3-13 .3-19.5.1-6.51-.1-13.01-.5-19.62-.5-3.3 0-6.6.1-9.9.3-1.6.3-3.2.5-4.9.9-1.6.4-3.1.9-4.8 1 1.6.4 3.3.3 5 .3 1.6 0 3.2.1 4.9.2 3.2-.2 6.5-.2 9.7-.3 6.5 0 13 .3 19.61.5 6.5.1 13.1.2 19.7-.1l4.9-.3c1.6-.1 3.21-.1 4.81-.1 1.6-.1 3.3-.3 4.9-.5 1.7-.2 3.2-.6 4.9-.5h.1v-.1-.5c0 .4 0 .5-.1.6z" fill="#000"/></svg>