<svg width="102" height="34" fill="none" xmlns="http://www.w3.org/2000/svg"><path d="M19.22 21.38c-.1-2.68-.5-5.27-.5-7.95 0-2.2.4-4.38-.4-6.47 0-.2.1-.5.1-.7.2-.99-3.3-.5-3.8.5-.3.3-.5.6-.4 1 0 .1.1.2.1.3-.7 3.18-1.6 6.26-2.6 9.34-.4 1.2-.9 2.3-1.3 3.48-.6-1.09-1.2-2.18-1.6-3.38-1.4-3.38-2.6-6.86-4.3-10.14.2-1.5-3.2-1.4-3.9 0-.8 1.69-.7 3.38-.4 5.17.3 1.99.4 3.98.4 6.07 0 3.97.4 7.85.4 11.83-.4.4-.5.9-.1 1.4.2.2.4.4.6.5 1 .69 3.6.09 3.6-1.3 0-4.08-.3-8.16-.4-12.33v-1.2c.1.1.1.3.2.4.6 1.6 1.3 3.18 2.2 4.67.9 1.5 1.3 3.09 1.8 4.68-.2.2-.3.5-.2.7 0 .2.1.3.3.4.6.49 1.8.3 2.5 0 .3-.1.6-.3.8-.4.3-.2.9-.7.7-1.2 0-.1-.1-.2-.1-.3.5-1.29.7-2.58 1-3.88.3-1.39.8-2.78 1.3-4.07.1.6.1 1.2.2 1.89.2 2.58 0 5.07 0 7.55 0 .8.1 1.6.2 2.5.1.29.4 1.78.3 1.88-.8.5-.6 1.1.2 1.3.9.2 2.1-.1 2.8-.7 1.2-1.1.6-2.79.4-4.18-.5-2.39 0-4.97-.1-7.36zM27.62 22.08c-.1-2-.8-3.88-.8-5.87 0-2.29.2-4.57-.2-6.86-.1-.7-4.1.1-3.9 1 .3 2.08.2 4.17.2 6.36 0 1.99.5 3.88.7 5.86.3 2.1-.1 4.18.1 6.17.1 1 .8 2.69.1 3.58-.4.5 1.5.3 1.6.3.8-.1 1.8-.4 2.3-1 .7-.8.2-2.38.1-3.38-.3-1.99-.1-4.17-.2-6.16zM43.92 18.8c-2.1-2.79-5.9-.8-8.6-1.5-1.4-.4-1.4-2.28-1.4-3.38 0-1.39-.1-2.68-.3-4.07-.1-1.1 0-2.1.7-2.89.1-.1.9-.3.8-.3.4-.1.7-.1 1.1-.1 1.5-.1 4.6.2 4 2.49-.3 1 3.6.4 3.9-.6 1.2-4.57-7.3-3.68-9.7-3.08-2.2.6-4.6 1.79-4.8 4.38-.1 1.19.3 2.38.3 3.58.1 1.39-.2 2.78.3 4.07 1.1 2.99 5.5 1.6 7.8 1.7 3.8.3 2.7 5.46 2.7 7.85 0 1.3 1.2 3.38.2 4.48-.6.7-2 .7-2.8.8-.8.1-2.2.29-2.7-.5-1-1.4.1-3.79-.1-5.38-.1-.9-4.1-.1-3.9 1 .3 2.58-1.4 6.06 2.4 6.56 2.4.3 5.2-.2 7.5-.9 1.2-.4 2.3-.89 3.2-1.78 1-.9.7-2.3.4-3.48-.5-3.09.9-6.47-1-8.95zM61.32 18.6c-.1-3.78-.7-7.46-.7-11.24 0-1.99-4-1.3-4 .3 0 3.58.5 7.16.7 10.74v.2c-1.9 0-3.9.2-5.9.2.2-4.58-.6-9.15-.4-13.83 0-.6-3.9-.1-3.9 1-.2 4.47.6 8.85.5 13.32l-.3 6.37c0 1.1.2 2.19.3 3.28.1 1 .5 2.29.2 3.28-.2.8 3.6.3 3.9-.7.5-1.79-.2-3.97-.4-5.76-.2-1.7 0-3.48.1-5.17 2-.1 4.1-.3 6.1 0l.3 4.07c.1 1.2.2 2.29.2 3.48 0 1 .1 2.49-.2 3.48-.8 2.1 3.1 1.9 3.7.4.7-1.89.5-4.17.4-6.16-.2-2.49-.6-4.88-.6-7.26zM78.22 22.97c-.9-2.78-2.4-5.17-3.6-7.75 1-1.9 2-3.88 2.9-5.87.8-1.8 1.4-3.78 3.1-5.07.6-.4.6-.9-.3-1-.9-.1-2.1.2-2.8.7-1.4 1.3-2.4 2.68-3.1 4.37-.9 2.1-1.9 4.08-2.9 6.07-.1.1-.1.3-.2.4-.5.3-.8.8-.6 1.3a66.9 66.9 0 01-2.5 4.57c-.3-5.47-1-11.04-1.2-16.51 0-1.3-4-.5-3.9 1 .2 6.85 1.2 13.62 1.3 20.48v.1c-.3.3-.2.5.1.6 0 1.78-.1 3.47-.2 5.26-.5.7.5 1.1 1.1 1.1h.1c.7 0 2.6-.3 2.7-1.4.2-2.08.3-4.17.2-6.26 1.6-1.69 2.9-3.58 4.1-5.57.8 1.5 1.5 2.99 2 4.58.9 2.68 2.3 5.27 3.1 7.95.5 1.8 4.5.7 3.9-1-1-2.78-2.4-5.26-3.3-8.05zM101.72 18.4c-.2-.8-1.4-.8-2.3-.8v-1c-.1-2.68-.2-5.36-.4-7.95-.2-2.48-1.6-3.28-4-3.18-2.4.1-5.2.5-7.5 1.4-2.6.99-4.1 2.88-4.6 5.66-.5 2.98.2 6.17.4 9.15.2 3.48.1 6.96.1 10.44 0 .6 3.9 0 3.9-1v-8.25c0-.8-.1-1.59-.1-2.38 1.4-.6 3.7 0 5.1.1 1.1.1 2.2-.2 3.2-.3 0 2.29.1 4.57.2 6.86 0 1.2.5 3.48-.4 4.47-.4.5 1.5.3 1.6.3.8-.1 1.8-.4 2.3-1 .9-1.09.5-3.77.4-5.06-.1-1.9-.1-3.78-.1-5.67 1.1-.2 2.4-.9 2.2-1.8zm-14.6-.1l-.3-3.68c-.2-2.29.1-5.57 2.3-6.96.6-.4 1.7-.3 2.4-.4 1-.2 2-.4 2.8.2 1.2.8.9 3.68.9 4.87 0 2 .2 3.98.3 5.97-.6.1-1.1.1-1.7.1-2.3-.2-4.6-.6-6.7-.1zM24.22 6.66c.5-.1 1-.2 1.5-.5l.2-.2c.5-.3 1-.79.7-1.39-.5-1.09-.4-2.18-.4-3.38 0-1-1-1.19-1.8-1.19-.7.1-2.2.6-2.2 1.5 0 .99-.1 1.98.1 2.98 0 .1-.1.2-.1.4-.1.2 0 .4.1.59v.4c.1.2.2.4.4.5.6.3 1.1.3 1.5.3z" fill="#000"/></svg>