<svg width="320" height="6" fill="none" xmlns="http://www.w3.org/2000/svg"><path d="M320 6c-2.5 0-3.8-1.2-4.9-2.2-1-.8-1.6-1.5-3-1.5-1.6 0-2.3.7-3.2 1.5-1 1-2.4 2.2-4.9 2.2-2.5 0-3.8-1.2-4.8-2.2-1-.8-1.7-1.5-3.2-1.5-1.4 0-2.1.7-3 1.5-1.1 1-2.4 2.2-5 2.2-2.4 0-3.8-1.2-4.8-2.2-1-.8-1.7-1.5-3.1-1.5-1.5 0-2.2.7-3.1 1.5-1.1 1-2.4 2.2-5 2.2-2.4 0-3.7-1.2-4.8-2.2-1-.8-1.6-1.5-3.1-1.5s-2.2.7-3.1 1.5c-1.2 1-2.5 2.2-5 2.2s-3.8-1.2-4.9-2.2c-1-.8-1.6-1.5-3-1.5-1.6 0-2.3.7-3.2 1.5-1 1-2.4 2.2-4.9 2.2-2.5 0-3.8-1.2-4.8-2.2-1-.8-1.7-1.5-3.2-1.5-1.5 0-2.1.7-3 1.5-1.2 1-2.5 2.2-5 2.2s-3.8-1.2-4.9-2.2c-1-.8-1.6-1.5-3-1.5-1.6 0-2.3.7-3.2 1.5-1 1-2.4 2.2-4.9 2.2-2.5 0-3.8-1.2-4.8-2.2-1-.8-1.7-1.5-3.2-1.5-1.4 0-2.1.7-3 1.5-1.2 1-2.5 2.2-5 2.2s-3.8-1.2-4.9-2.2c-1-.8-1.6-1.5-3-1.5-1.6 0-2.3.7-3.2 1.5-1 1-2.4 2.2-4.9 2.2-2.5 0-3.8-1.2-4.8-2.2-1-.8-1.7-1.5-3.2-1.5-1.5 0-2.1.7-3 1.5-1.1 1-2.4 2.2-5 2.2-2.4 0-3.8-1.2-4.8-2.2-1-.8-1.7-1.5-3.1-1.5-1.5 0-2.2.7-3.1 1.5-1.1 1-2.4 2.2-5 2.2-2.4 0-3.7-1.2-4.8-2.2-1-.8-1.6-1.5-3.1-1.5s-2.2.7-3.1 1.5c-1 1-2.4 2.2-4.9 2.2-2.5 0-3.8-1.2-4.9-2.2-.9-.8-1.6-1.5-3-1.5-1.6 0-2.2.7-3.2 1.5-1 1-2.4 2.2-4.9 2.2-2.5 0-3.8-1.2-4.8-2.2-1-.8-1.7-1.5-3.1-1.5-1.5 0-2.2.7-3.2 1.5-1 1-2.3 2.2-4.8 2.2s-3.8-1.2-4.9-2.2c-1-.8-1.6-1.5-3.1-1.5S86 3 85 3.8c-1 1-2.4 2.2-5 2.2-2.4 0-3.7-1.2-4.8-2.2-1-.8-1.6-1.5-3-1.5-1.6 0-2.3.7-3.2 1.5-1 1-2.4 2.2-4.9 2.2-2.5 0-3.8-1.2-4.8-2.2-1-.8-1.7-1.5-3.2-1.5-1.5 0-2.1.7-3 1.5-1.1 1-2.4 2.2-5 2.2-2.5 0-3.8-1.2-4.8-2.2-1-.8-1.7-1.5-3.1-1.5-1.5 0-2.2.7-3.2 1.5C35.8 4.8 34.5 6 32 6c-2.5 0-3.8-1.2-4.9-2.2-1-.8-1.6-1.5-3-1.5-1.6 0-2.3.7-3.2 1.5-1 1-2.4 2.2-4.9 2.2-2.5 0-3.8-1.2-4.8-2.2-1-.8-1.7-1.5-3.2-1.5-1.5 0-2.2.7-3.1 1.5C3.9 4.8 2.5 6 0 6V3.7c1.5 0 2.2-.7 3.1-1.5 1-1 2.4-2.2 5-2.2 2.4 0 3.7 1.2 4.8 2.2 1 .8 1.6 1.5 3.1 1.5s2.2-.7 3.1-1.5c1-1 2.4-2.2 5-2.2 2.4 0 3.7 1.2 4.8 2.2 1 .8 1.6 1.5 3.1 1.5s2.2-.7 3.1-1.5c1-1 2.4-2.2 4.9-2.2 2.5 0 3.8 1.2 4.9 2.2.9.8 1.6 1.5 3 1.5 1.6 0 2.2-.7 3.2-1.5C52 1.2 53.5 0 56 0c2.5 0 3.8 1.2 4.8 2.2 1 .8 1.7 1.5 3.1 1.5 1.5 0 2.2-.7 3.2-1.5 1-1 2.3-2.2 4.8-2.2s3.8 1.2 4.9 2.2c1 .8 1.6 1.5 3.1 1.5S82.1 3 83 2.2C84 1.2 85.4 0 88 0c2.5 0 3.8 1.2 4.9 2.2 1 .8 1.6 1.5 3 1.5 1.6 0 2.3-.7 3.2-1.5 1-1 2.4-2.2 4.9-2.2 2.5 0 3.8 1.2 4.8 2.2 1 .8 1.7 1.5 3.2 1.5 1.4 0 2.1-.7 3-1.5 1.1-1 2.4-2.2 5-2.2 2.5 0 3.8 1.2 4.8 2.2 1 .8 1.7 1.5 3.1 1.5 1.5 0 2.2-.7 3.1-1.5 1.1-1 2.4-2.2 5-2.2 2.4 0 3.7 1.2 4.8 2.2 1 .8 1.6 1.5 3.1 1.5S146 3 147 2.2c1-1 2.4-2.2 4.9-2.2 2.5 0 3.8 1.2 4.9 2.2 1 .8 1.6 1.5 3 1.5 1.6 0 2.2-.7 3.2-1.5 1-1 2.4-2.2 4.9-2.2 2.5 0 3.8 1.2 4.8 2.2 1 .8 1.7 1.5 3.2 1.5 1.5 0 2.1-.7 3-1.5 1.1-1 2.4-2.2 5-2.2 2.4 0 3.7 1.2 4.8 2.2 1 .8 1.6 1.5 3.1 1.5s2.2-.7 3.1-1.5c1.1-1 2.4-2.2 5-2.2 2.4 0 3.7 1.2 4.8 2.2 1 .8 1.6 1.5 3 1.5 1.6 0 2.3-.7 3.2-1.5 1-1 2.4-2.2 4.9-2.2 2.5 0 3.8 1.2 4.9 2.2.9.8 1.6 1.5 3 1.5 1.6 0 2.2-.7 3.2-1.5 1.4-1 2.7-2.2 5.2-2.2s3.8 1.2 4.9 2.2c1 .8 1.6 1.5 3.1 1.5s2.2-.7 3.1-1.5c1-1 2.4-2.2 4.9-2.2 2.5 0 3.8 1.2 4.9 2.2.9.8 1.6 1.5 3 1.5 1.5 0 2.2-.7 3.2-1.5 1-1 2.4-2.2 5-2.2 2.4 0 3.7 1.2 4.8 2.2 1 .8 1.6 1.5 3.1 1.5s2.2-.7 3.1-1.5c1-1 2.4-2.2 4.9-2.2 2.5 0 3.8 1.2 4.9 2.2.9.8 1.6 1.5 3 1.5 1.6 0 2.2-.7 3.2-1.5 1-1 2.4-2.2 4.9-2.2 2.5 0 3.8 1.2 4.8 2.2 1 .8 1.7 1.5 3.1 1.5 1.5 0 2.2-.7 3.2-1.5 1-1 2.3-2.2 4.8-2.2s3.8 1.2 4.9 2.2c1 .8 1.6 1.5 3.1 1.5V6h.1z" fill="#F1F1F1"/></svg>