<svg width="768" height="24" fill="none" xmlns="http://www.w3.org/2000/svg"><path d="M749.8 0c-9.7 0-9.7 9.9-19.2 9.9-9.6 0-9.7-9.9-19.3-9.9-9.5 0-9.6 9.9-19.2 9.9S682.5 0 672.8 0c-9.6 0-9.6 9.9-19.2 9.9S644 0 634.4 0s-9.6 9.9-19.2 9.9S605.4 0 595.8 0c-9.7 0-9.7 9.9-19.2 9.9-9.6 0-9.7-9.9-19.3-9.9-9.7 0-9.7 9.9-19.2 9.9-9.7 0-9.7-9.9-19.3-9.9-9.7 0-9.7 9.9-19.2 9.9-9.7 0-9.7-9.9-19.3-9.9-9.5 0-9.7 9.9-19.3 9.9-9.6 0-9.6-9.9-19.2-9.9-9.7 0-9.7 9.9-19.2 9.9-9.7 0-9.7-9.9-19.3-9.9-9.7 0-9.7 9.9-19.2 9.9-9.7 0-9.7-9.9-19.3-9.9-9.6 0-9.6 9.9-19.2 9.9S336 0 326.4 0s-9.6 9.9-19.3 9.9c-9.6 0-9.6-9.9-19.3-9.9-9.6 0-9.6 9.9-19.2 9.9-9.7 0-9.7-9.9-19.3-9.9-9.7 0-9.7 9.9-19.3 9.9-9.6 0-9.6-9.9-19.3-9.9-9.6 0-9.6 9.9-19.3 9.9-9.6 0-9.6-9.9-19.3-9.9-9.6 0-9.6 9.9-19.2 9.9S143.3 0 133.6 0c-9.6 0-9.6 9.9-19.2 9.9-9.7 0-9.7-9.9-19.3-9.9-9.7 0-9.7 9.9-19.3 9.9-9.6 0-9.6-9.9-19.3-9.9-9.4 0-9.4 9.9-19 9.9S27.9 0 18.3 0 8.6 9.9-1 9.9V24h770V9.9c-9.6 0-9.6-9.9-19.2-9.9z" fill="#fff"/></svg>