<svg width="50" height="40" fill="none" xmlns="http://www.w3.org/2000/svg"><path d="M6.03 35h12.61V21.27H6.03V35zm28.36-23.3h-7.37c.5-.3 1-.5 1.41-.8 1.62-1.09 2.42-2.57 2.42-3.95 0-1.18-.6-2.17-1.41-2.86A4.72 4.72 0 0026.41 3c-1.2 0-2.42.4-3.33 1.09a10.36 10.36 0 00-3.43 4.05c0 .1-.1.2-.1.2-.3-.6-.6-1.2-1-1.78a8.5 8.5 0 00-2.53-2.47C15 3.49 13.9 3 12.69 3s-2.32.5-3.23 1.28a4.39 4.39 0 00-1.41 3.07c0 .69.2 1.48.6 2.17.6.89 1.41 1.58 2.63 2.17H4.6c-.9 0-1.61.7-1.61 1.58v5.83h15.54v-7.4h1.92v7.4H36v-5.83c0-.89-.7-1.58-1.61-1.58zm-22.5-2.28c-.61-.4-1.02-.79-1.22-1.09-.2-.4-.3-.69-.3-.98 0-.5.2-1 .7-1.49.4-.4 1.01-.69 1.62-.69.7 0 1.41.2 2.02.7a7.6 7.6 0 012.62 3.15c.3.7.6 1.39.8 2.08-3.12-.3-5.14-.99-6.25-1.68zm10.59-1.58a6.84 6.84 0 011.91-1.88c.71-.5 1.42-.69 2.02-.69.6 0 1.11.2 1.52.5.4.3.6.69.6 1.18 0 .5-.3 1.28-1.51 2.07-1.11.8-3.13 1.68-6.16 2.28.3-1.19.91-2.47 1.62-3.46zM20.46 35h12.61V21.27H20.46V35z" fill="#63D1BB"/></svg>