<svg width="40" height="62" fill="none" xmlns="http://www.w3.org/2000/svg"><path d="M15.16 37.72c-.3 1-.2 2.19 0 3.58.5 2.59 1.7 5.97 2.4 9.65h5.08c.7-3.58 1.9-6.96 2.5-9.65.3-1.4.3-2.69 0-3.58-.3-.9-.9-1.6-2-2.3h-5.98c-1.2.7-1.8 1.4-2 2.3zM26.93 57.62H13.17c-1.3 0-2.3 1-2.3 2.19V62h18.36v-2.19c0-1.2-1-2.19-2.3-2.19zM34.02 2.19H22.34c0-1.2-1-2.19-2.29-2.19-1.3 0-2.3 1-2.3 2.19H6.09L0 27.57c.8-.5 1.6-1 2.6-1 1.39 0 2.19.8 2.89 1.4.7.6 1.2.8 1.4.8.3 0 .8-.3 1.49-.8.7-.5 1.6-1.4 2.9-1.4 1.29 0 2.19.8 2.88 1.4.7.5 1.2.8 1.5.8.1 0 .3-.1.6-.2.2-.1.5-.4.9-.6.5-.4 1.1-1 2-1.2.3-.1.6-.1.89-.1 1.3 0 2.2.8 2.9 1.4.7.5 1.19.8 1.49.8.3 0 .8-.3 1.4-.8.7-.6 1.6-1.4 2.89-1.4 1.4 0 2.2.8 2.9 1.4.29.3.59.5.89.6.2.1.4.2.6.2.3 0 .8-.3 1.4-.9.7-.6 1.59-1.4 2.89-1.4 1 0 1.8.5 2.59 1L34.02 2.19zM23.44 53.14h-6.88c-.7 0-1.1.5-1.1 1.1 0 .6.5 1.1 1.1 1.1h6.88c.7 0 1.1-.5 1.1-1.1.1-.6-.4-1.1-1.1-1.1z" fill="#149080"/><path d="M20.05 28.76c-.1 0-.3.1-.6.2-.2.1-.4.3-.6.4v3.68h2.3v-3.58c-.5-.4-.9-.7-1.1-.7z" fill="#149080"/></svg>